<svg width="68" height="68" viewBox="0 0 68 68" fill="none" xmlns="http://www.w3.org/2000/svg">
<g filter="url(#filter0_d)">
<path d="M34 0C17.5 0 4 13.5241 4 30.1807C4 45.241 14.98 57.741 29.32 60V38.9157H21.7V30.1807H29.32V23.5241C29.32 15.9639 33.79 11.8072 40.66 11.8072C43.93 11.8072 47.3499 12.3795 47.3499 12.3795V19.8193H43.57C39.85 19.8193 38.68 22.1386 38.68 24.5181V30.1807H47.0199L45.6699 38.9157H38.68V60C45.7493 58.8791 52.1866 55.2576 56.8297 49.7893C61.4729 44.3211 64.016 37.3664 63.9999 30.1807C63.9999 13.5241 50.4999 0 34 0Z" fill="#7C7C7C"/>
</g>
<defs>
<filter id="filter0_d" x="0" y="0" width="68" height="68" filterUnits="userSpaceOnUse" color-interpolation-filters="sRGB">
<feFlood flood-opacity="0" result="BackgroundImageFix"/>
<feColorMatrix in="SourceAlpha" type="matrix" values="0 0 0 0 0 0 0 0 0 0 0 0 0 0 0 0 0 0 127 0"/>
<feOffset dy="4"/>
<feGaussianBlur stdDeviation="2"/>
<feColorMatrix type="matrix" values="0 0 0 0 0 0 0 0 0 0 0 0 0 0 0 0 0 0 0.25 0"/>
<feBlend mode="normal" in2="BackgroundImageFix" result="effect1_dropShadow"/>
<feBlend mode="normal" in="SourceGraphic" in2="effect1_dropShadow" result="shape"/>
</filter>
</defs>
</svg>
